<?xml version="1.0" encoding="UTF-8"?>
<!DOCTYPE svg PUBLIC "-//W3C//DTD SVG 1.1//EN" "http://www.w3.org/Graphics/SVG/1.1/DTD/svg11.dtd">
<!-- Creator: CorelDRAW -->
<svg xmlns="http://www.w3.org/2000/svg" xml:space="preserve" width="250px" height="250px" version="1.1" style="shape-rendering:geometricPrecision; text-rendering:geometricPrecision; image-rendering:optimizeQuality; fill-rule:evenodd; clip-rule:evenodd"
viewBox="0 0 250 250"
 xmlns:xlink="http://www.w3.org/1999/xlink"
 xmlns:xodm="http://www.corel.com/coreldraw/odm/2003">
 <defs>
  <style type="text/css">
   <![CDATA[
    .str0 {stroke:#373435;stroke-width:10.58;stroke-miterlimit:2.61313}
    .fil0 {fill:#F0F5FA}
    .fil1 {fill:#91D8F7}
    .fil2 {fill:#009B4C}
    .fil3 {fill:#1D1819}
    .fil5 {fill:#5F5D5D}
    .fil4 {fill:#60BA7C}
    .fil6 {fill:#373435;fill-rule:nonzero}
    .fil7 {fill:#45B67A;fill-rule:nonzero}
   ]]>
  </style>
      <mask id="id0">
  <linearGradient id="id1" gradientUnits="userSpaceOnUse" x1="724.12" y1="379.15" x2="801.6" y2="391.46">
   <stop offset="0" style="stop-opacity:0.478431; stop-color:white"/>
   <stop offset="0.419608" style="stop-opacity:0.741176; stop-color:white"/>
   <stop offset="1" style="stop-opacity:1; stop-color:white"/>
  </linearGradient>
       <rect style="fill:url(#id1)" x="723.12" y="304.17" width="98.52" height="167.23"/>
      </mask>
      <mask id="id2">
  <linearGradient id="id3" gradientUnits="userSpaceOnUse" x1="724.12" y1="379.15" x2="801.6" y2="391.46">
   <stop offset="0" style="stop-opacity:0.478431; stop-color:white"/>
   <stop offset="0.419608" style="stop-opacity:0.741176; stop-color:white"/>
   <stop offset="1" style="stop-opacity:1; stop-color:white"/>
  </linearGradient>
       <rect style="fill:url(#id3)" x="723.12" y="365.59" width="72.8" height="138.62"/>
      </mask>
      <mask id="id4">
  <linearGradient id="id5" gradientUnits="userSpaceOnUse" x1="724.12" y1="379.15" x2="801.6" y2="391.46">
   <stop offset="0" style="stop-opacity:0.478431; stop-color:white"/>
   <stop offset="0.419608" style="stop-opacity:0.741176; stop-color:white"/>
   <stop offset="1" style="stop-opacity:1; stop-color:white"/>
  </linearGradient>
       <rect style="fill:url(#id5)" x="723.12" y="273.44" width="74.65" height="42.09"/>
      </mask>
 </defs>
 <g id="Layer_x0020_1">
  <metadata id="CorelCorpID_0Corel-Layer"/>
  <rect class="fil0 str0" x="586.51" y="251.19" width="821.9" height="273.31" rx="273.99" ry="64.44"/>
  <g id="_2238070835248">
   <rect class="fil1" x="598.17" y="262.79" width="250" height="250" rx="77.12" ry="77.5"/>
   <g>
    <g>
     <path class="fil2" d="M723.03 304.17c-25.19,6.84 -70.5,16.94 -98.29,22.74l0 40.96c16.95,-3.09 41.81,-8.04 59.28,-11.37l0 111.5c4.87,0.26 35.49,2.96 39.05,3.41l39.24 -3.41 0 -111.5 59.28 11.37 0 -39.82c-6.26,-1.51 -94.89,-23 -98.56,-23.88z"/>
     <path class="fil3" d="M723.06 478.16c-3.96,-0.5 -39,-5.01 -44.63,-5.61l0 -106.95c-5.32,0.76 -24.36,4.13 -27.39,4.82 -0.02,4.61 0.18,12.06 0.55,44.1l0 76.23c5.55,1 12.84,2.39 18.04,3.26l53.41 10.21 72.83 -13.47 0 -120.6 -26.85 -4.55 0 106.95c-10.91,1.34 -40.89,4.99 -45.96,5.61z"/>
     <path class="fil3" d="M723.03 273.44l-72.95 17.07 0 25.03c12.98,-2.87 58.38,-13.79 72.96,-17.57 4.57,1.38 65.01,15.43 74.68,17.57l0 -25.03 -74.69 -17.07z"/>
    </g>
    <g>
     <path class="fil4" style="mask:url(#id0)" d="M723.12 471.4l0 -167.23c4.08,0.98 92.27,22.37 98.52,23.88l0 39.82 -59.28 -11.38 0 111.5 -39.24 3.41z"/>
     <path class="fil5" style="mask:url(#id2)" d="M723.12 504.21l0 -26.05c5.09,-0.63 35.04,-4.27 45.95,-5.62l0 -106.95 26.85 4.55 0 120.61 -72.8 13.46z"/>
     <path class="fil5" style="mask:url(#id4)" d="M723.12 297.98l0 -24.54 74.65 17.06 0 25.03c-9.66,-2.13 -69.91,-16.14 -74.65,-17.55z"/>
    </g>
   </g>
  </g>
  <path class="fil6" d="M1322.28 414.37l-12.32 -48.89 0 52.97c0,2.93 -0.66,5.13 -1.96,6.59 -1.31,1.47 -3.04,2.2 -5.19,2.2 -2.09,0 -3.8,-0.73 -5.13,-2.18 -1.32,-1.45 -1.98,-3.64 -1.98,-6.61l0 -60.73c0,-3.36 0.88,-5.61 2.61,-6.79 1.75,-1.16 4.11,-1.75 7.06,-1.75l4.82 0c2.9,0 4.99,0.27 6.3,0.78 1.3,0.52 2.28,1.47 2.91,2.83 0.62,1.36 1.34,3.57 2.14,6.65l11.16 42.07 11.15 -42.07c0.8,-3.08 1.52,-5.29 2.14,-6.65 0.63,-1.36 1.59,-2.31 2.9,-2.83 1.3,-0.51 3.41,-0.78 6.31,-0.78l4.8 0c2.97,0 5.33,0.59 7.08,1.75 1.73,1.18 2.61,3.43 2.61,6.79l0 60.73c0,2.93 -0.66,5.13 -1.97,6.59 -1.3,1.47 -3.05,2.2 -5.23,2.2 -2.06,0 -3.76,-0.73 -5.08,-2.2 -1.32,-1.46 -1.98,-3.66 -1.98,-6.59l0 -52.97 -12.32 48.89c-0.8,3.17 -1.44,5.51 -1.96,6.99 -0.5,1.47 -1.43,2.83 -2.79,4.04 -1.38,1.24 -3.25,1.84 -5.66,1.84 -1.83,0 -3.36,-0.39 -4.62,-1.18 -1.25,-0.78 -2.23,-1.78 -2.93,-3 -0.69,-1.23 -1.25,-2.57 -1.64,-4.06 -0.41,-1.48 -0.82,-3.03 -1.23,-4.63z"/>
  <path class="fil6" d="M1240.12 393.14l-5.45 0 0 24.63c0,3.25 -0.72,5.63 -2.15,7.17 -1.43,1.53 -3.3,2.3 -5.59,2.3 -2.48,0 -4.41,-0.8 -5.77,-2.41 -1.36,-1.61 -2.04,-3.95 -2.04,-7.06l0 -59.07c0,-3.34 0.75,-5.77 2.25,-7.27 1.5,-1.5 3.93,-2.25 7.28,-2.25l25.28 0c3.49,0 6.47,0.14 8.96,0.45 2.48,0.3 4.72,0.89 6.7,1.8 2.41,1.02 4.54,2.47 6.4,4.34 1.84,1.9 3.25,4.1 4.2,6.58 0.96,2.5 1.45,5.15 1.45,7.95 0,5.72 -1.61,10.3 -4.85,13.73 -3.23,3.41 -8.13,5.84 -14.69,7.27 2.75,1.47 5.4,3.63 7.92,6.49 2.5,2.86 4.75,5.92 6.72,9.13 1.96,3.24 3.5,6.13 4.61,8.74 1.09,2.59 1.64,4.38 1.64,5.36 0,1 -0.32,2 -0.96,3.01 -0.64,1 -1.52,1.78 -2.65,2.35 -1.1,0.58 -2.41,0.86 -3.87,0.86 -1.74,0 -3.2,-0.41 -4.4,-1.23 -1.18,-0.82 -2.2,-1.86 -3.06,-3.11 -0.86,-1.25 -2.02,-3.11 -3.48,-5.54l-6.24 -10.37c-2.23,-3.78 -4.24,-6.68 -5.99,-8.66 -1.77,-2.01 -3.55,-3.36 -5.38,-4.1 -1.8,-0.73 -4.09,-1.09 -6.84,-1.09zm8.9 -32.27l-14.35 0 0 21.12 13.92 0c3.74,0 6.88,-0.32 9.44,-0.96 2.53,-0.65 4.48,-1.76 5.82,-3.31 1.34,-1.56 2.02,-3.7 2.02,-6.42 0,-2.14 -0.53,-4.02 -1.62,-5.64 -1.08,-1.63 -2.58,-2.85 -4.51,-3.65 -1.8,-0.77 -5.38,-1.14 -10.72,-1.14z"/>
  <path class="fil6" d="M1205.29 401.7c0,2.45 -0.59,5.1 -1.81,7.94 -1.2,2.84 -3.09,5.63 -5.68,8.36 -2.58,2.76 -5.88,4.97 -9.88,6.69 -4.03,1.69 -8.71,2.55 -14.05,2.55 -4.04,0 -7.72,-0.37 -11.05,-1.14 -3.3,-0.77 -6.32,-1.97 -9.02,-3.59 -2.7,-1.61 -5.2,-3.76 -7.47,-6.4 -2.02,-2.41 -3.76,-5.09 -5.19,-8.08 -1.42,-2.98 -2.5,-6.18 -3.21,-9.56 -0.72,-3.4 -1.07,-6.99 -1.07,-10.8 0,-6.16 0.89,-11.7 2.69,-16.58 1.79,-4.9 4.38,-9.08 7.72,-12.55 3.36,-3.46 7.28,-6.11 11.78,-7.93 4.51,-1.81 9.31,-2.72 14.41,-2.72 6.22,0 11.74,1.23 16.6,3.72 4.84,2.47 8.56,5.54 11.15,9.19 2.58,3.64 3.88,7.07 3.88,10.33 0,1.78 -0.64,3.34 -1.89,4.71 -1.26,1.36 -2.77,2.04 -4.56,2.04 -1.99,0 -3.49,-0.48 -4.47,-1.41 -1,-0.95 -2.11,-2.57 -3.32,-4.88 -2.04,-3.81 -4.42,-6.65 -7.15,-8.54 -2.75,-1.88 -6.11,-2.83 -10.14,-2.83 -6.39,0 -11.47,2.43 -15.26,7.28 -3.79,4.86 -5.68,11.76 -5.68,20.69 0,5.97 0.84,10.94 2.52,14.91 1.66,3.97 4.04,6.91 7.11,8.88 3.08,1.95 6.67,2.93 10.8,2.93 4.46,0 8.24,-1.11 11.33,-3.32 3.09,-2.22 5.41,-5.47 6.98,-9.78 0.67,-2.02 1.49,-3.66 2.47,-4.95 0.97,-1.27 2.54,-1.91 4.7,-1.91 1.86,0 3.45,0.64 4.77,1.95 1.33,1.28 1.99,2.89 1.99,4.8z"/>
  <path class="fil7" d="M1101.72 370.41l1.57 0 0 -8.6c0,-2.3 0.06,-4.11 0.18,-5.41 0.13,-1.32 0.47,-2.45 1.02,-3.38 0.55,-0.98 1.36,-1.79 2.41,-2.39 1.04,-0.61 2.2,-0.92 3.51,-0.92 1.8,0 3.43,0.68 4.89,2.04 0.98,0.91 1.59,2.02 1.86,3.34 0.27,1.31 0.39,3.17 0.39,5.58l0 9.74 5.24 0c2.02,0 3.57,0.48 4.63,1.43 1.07,0.96 1.61,2.2 1.61,3.68 0,1.93 -0.77,3.27 -2.29,4.04 -1.52,0.77 -3.68,1.14 -6.52,1.14l-2.67 0 0 26.28c0,2.23 0.08,3.96 0.24,5.16 0.16,1.2 0.57,2.18 1.25,2.93 0.69,0.75 1.8,1.13 3.34,1.13 0.82,0 1.97,-0.15 3.39,-0.45 1.43,-0.28 2.56,-0.45 3.35,-0.45 1.16,0 2.2,0.47 3.12,1.4 0.93,0.93 1.38,2.07 1.38,3.43 0,2.31 -1.25,4.06 -3.75,5.27 -2.52,1.24 -6.13,1.84 -10.85,1.84 -4.47,0 -7.85,-0.75 -10.13,-2.25 -2.31,-1.5 -3.81,-3.57 -4.53,-6.24 -0.71,-2.64 -1.07,-6.18 -1.07,-10.61l0 -27.44 -1.87 0c-2.08,0 -3.65,-0.48 -4.72,-1.46 -1.09,-0.97 -1.63,-2.22 -1.63,-3.72 0,-1.48 0.57,-2.72 1.7,-3.68 1.14,-0.95 2.79,-1.43 4.95,-1.43z"/>
  <path class="fil7" d="M1088.82 408.58c0,3.94 -0.97,7.31 -2.88,10.12 -1.91,2.81 -4.76,4.93 -8.51,6.38 -3.75,1.45 -8.31,2.16 -13.69,2.16 -5.13,0 -9.52,-0.78 -13.19,-2.36 -3.66,-1.55 -6.36,-3.52 -8.11,-5.88 -1.74,-2.34 -2.61,-4.7 -2.61,-7.07 0,-1.58 0.55,-2.92 1.68,-4.02 1.11,-1.13 2.52,-1.68 4.23,-1.68 1.51,0 2.65,0.37 3.45,1.1 0.81,0.74 1.58,1.75 2.31,3.1 1.46,2.53 3.22,4.45 5.25,5.7 2.04,1.27 4.83,1.89 8.35,1.89 2.86,0 5.2,-0.64 7.02,-1.91 1.84,-1.27 2.76,-2.74 2.76,-4.38 0,-2.52 -0.95,-4.34 -2.85,-5.5 -1.91,-1.15 -5.04,-2.26 -9.4,-3.31 -4.91,-1.22 -8.91,-2.5 -12.01,-3.84 -3.07,-1.34 -5.54,-3.13 -7.4,-5.33 -1.84,-2.2 -2.77,-4.91 -2.77,-8.11 0,-2.88 0.86,-5.58 2.56,-8.13 1.72,-2.56 4.24,-4.58 7.58,-6.1 3.32,-1.52 7.34,-2.29 12.06,-2.29 3.7,0 7.03,0.38 9.96,1.15 2.94,0.77 5.41,1.8 7.38,3.09 1.98,1.3 3.48,2.73 4.5,4.31 1.04,1.57 1.56,3.09 1.56,4.61 0,1.62 -0.56,2.98 -1.67,4.02 -1.09,1.05 -2.66,1.57 -4.68,1.57 -1.46,0 -2.72,-0.41 -3.75,-1.25 -1.02,-0.84 -2.2,-2.09 -3.54,-3.77 -1.07,-1.4 -2.34,-2.52 -3.81,-3.36 -1.46,-0.84 -3.45,-1.25 -5.97,-1.25 -2.57,0 -4.71,0.55 -6.43,1.64 -1.7,1.11 -2.56,2.49 -2.56,4.13 0,1.5 0.63,2.74 1.88,3.68 1.27,0.97 2.95,1.77 5.08,2.4 2.12,0.62 5.05,1.39 8.79,2.3 4.43,1.07 8.06,2.38 10.87,3.88 2.8,1.5 4.93,3.27 6.38,5.33 1.44,2.03 2.18,4.36 2.18,6.98z"/>
  <path class="fil7" d="M1015.13 419.18l0 -1.84c-1.72,2.16 -3.5,3.99 -5.4,5.45 -1.87,1.47 -3.93,2.56 -6.16,3.27 -2.24,0.72 -4.77,1.08 -7.63,1.08 -3.47,0 -6.56,-0.72 -9.3,-2.15 -2.73,-1.43 -4.86,-3.39 -6.36,-5.91 -1.77,-3.04 -2.66,-7.4 -2.66,-13.1l0 -28.31c0,-2.88 0.64,-5.01 1.93,-6.42 1.28,-1.41 3,-2.13 5.13,-2.13 2.14,0 3.89,0.72 5.22,2.15 1.32,1.43 1.98,3.55 1.98,6.4l0 22.87c0,3.31 0.28,6.1 0.84,8.35 0.55,2.25 1.55,4.02 3,5.29 1.45,1.27 3.41,1.91 5.9,1.91 2.41,0 4.68,-0.71 6.81,-2.14 2.13,-1.43 3.68,-3.31 4.66,-5.62 0.81,-2.02 1.2,-6.45 1.2,-13.29l0 -17.37c0,-2.85 0.66,-4.97 1.98,-6.4 1.34,-1.43 3.08,-2.15 5.2,-2.15 2.13,0 3.85,0.72 5.13,2.13 1.31,1.41 1.95,3.54 1.95,6.42l0 41.41c0,2.71 -0.62,4.75 -1.86,6.13 -1.25,1.35 -2.84,2.03 -4.8,2.03 -1.95,0 -3.58,-0.71 -4.85,-2.12 -1.27,-1.42 -1.91,-3.4 -1.91,-5.94z"/>
  <path class="fil7" d="M947.9 406.62l0 11.94c0,2.89 -0.68,5.05 -2.04,6.5 -1.36,1.45 -3.08,2.18 -5.17,2.18 -2.05,0 -3.75,-0.73 -5.07,-2.2 -1.32,-1.46 -1.99,-3.62 -1.99,-6.48l0 -39.8c0,-6.42 2.33,-9.64 6.96,-9.64 2.36,0 4.07,0.75 5.11,2.26 1.05,1.5 1.62,3.73 1.73,6.66 1.7,-2.93 3.45,-5.16 5.26,-6.66 1.8,-1.51 4.2,-2.26 7.2,-2.26 3,0 5.91,0.75 8.74,2.26 2.82,1.5 4.23,3.5 4.23,5.98 0,1.75 -0.59,3.18 -1.8,4.33 -1.2,1.14 -2.5,1.7 -3.9,1.7 -0.52,0 -1.79,-0.33 -3.79,-0.97 -2.02,-0.64 -3.79,-0.97 -5.32,-0.97 -2.09,0 -3.79,0.56 -5.13,1.65 -1.32,1.11 -2.36,2.73 -3.09,4.9 -0.74,2.16 -1.24,4.73 -1.52,7.72 -0.27,2.98 -0.41,6.61 -0.41,10.9z"/>
  <path class="fil7" d="M921.66 362.05l-16.96 0 0 55.72c0,3.22 -0.71,5.59 -2.16,7.15 -1.43,1.55 -3.29,2.32 -5.56,2.32 -2.31,0 -4.2,-0.78 -5.65,-2.36 -1.45,-1.57 -2.18,-3.93 -2.18,-7.11l0 -55.72 -16.96 0c-2.66,0 -4.63,-0.59 -5.91,-1.76 -1.29,-1.17 -1.95,-2.73 -1.95,-4.66 0,-1.98 0.68,-3.56 2.02,-4.72 1.34,-1.16 3.29,-1.73 5.84,-1.73l49.47 0c2.7,0 4.68,0.59 6.01,1.79 1.3,1.19 1.96,2.75 1.96,4.66 0,1.93 -0.68,3.49 -2,4.66 -1.32,1.17 -3.31,1.76 -5.97,1.76z"/>
 </g>
</svg>
