<?xml version="1.0" encoding="UTF-8"?>
<!DOCTYPE svg PUBLIC "-//W3C//DTD SVG 1.1//EN" "http://www.w3.org/Graphics/SVG/1.1/DTD/svg11.dtd">
<!-- Creator: CorelDRAW -->
<svg xmlns="http://www.w3.org/2000/svg" xml:space="preserve" width="100px" height="100px" version="1.1" style="shape-rendering:geometricPrecision; text-rendering:geometricPrecision; image-rendering:optimizeQuality; fill-rule:evenodd; clip-rule:evenodd"
viewBox="0 0 100 100"
 xmlns:xlink="http://www.w3.org/1999/xlink"
 xmlns:xodm="http://www.corel.com/coreldraw/odm/2003">
 <defs>
  <style type="text/css">
   <![CDATA[
    .fil2 {fill:#C5E4D2}
    .fil1 {fill:#8BD0C6}
    .fil0 {fill:#169A95}
   ]]>
  </style>
 </defs>
 <g id="Layer_x0020_1">
  <metadata id="CorelCorpID_0Corel-Layer"/>
  <path class="fil0" d="M1.15 19.3l0 69.77 0 0.03c0,0.48 0.15,0.64 0.64,0.64l0.02 0 43.92 0c0,-7.75 -0.64,-12.98 4.07,-19.33 2.36,-3.19 5.28,-5.52 8.86,-7.42 -0.27,-1.13 -1.72,-2.83 -2.71,-5.54 -2.85,-7.81 -1.11,-15.88 4.2,-22.16 0.69,-0.83 2.36,-2.78 3.41,-3.06 0,-4.13 0.4,-11.93 -0.25,-15.36 -0.18,-0.98 -0.54,-1.96 -1.04,-2.75 -1.49,-2.36 -4.25,-4.4 -7.4,-4.4l-45.03 0c-2.23,0 -5.05,1.39 -6.28,2.86 -1.43,1.7 -2.41,3.63 -2.41,6.72zm35.43 43.62l9.12 0 0 8.96 -9.12 0 0 -8.96zm-17.56 0.06l9.11 0 0 8.96 -9.11 0 0 -8.96zm17.56 -17.49l9.12 0 0 8.96 -9.12 0 0 -8.96zm-17.56 0l9.11 0 0 8.96 -9.11 0 0 -8.96zm17.59 -18.05l9.11 0 0 8.95 -9.11 0 0 -8.95zm-17.6 0.06l9.12 0 0 8.96 -9.12 0 0 -8.96z"/>
  <path class="fil1" d="M99 82.43c-0.22,-3.69 -1.23,-6.41 -5.19,-9.78 -9.91,-8.45 -34.87,-6.67 -38.8,6.53 -0.86,2.89 -0.59,6.94 -0.59,10.56l44.58 0 0 -7.31z"/>
  <path class="fil2" d="M63.34 49.62c0,14.35 19.15,18.58 25.34,6.17 2.55,-5.12 1.64,-11.38 -2.32,-15.37 -4.72,-4.74 -12.16,-5.33 -17.45,-1.5 -3.33,2.4 -5.57,6.47 -5.57,10.7z"/>
 </g>
</svg>
