<?xml version="1.0" encoding="UTF-8"?>
<!DOCTYPE svg PUBLIC "-//W3C//DTD SVG 1.1//EN" "http://www.w3.org/Graphics/SVG/1.1/DTD/svg11.dtd">
<!-- Creator: CorelDRAW -->
<svg xmlns="http://www.w3.org/2000/svg" xml:space="preserve" width="100px" height="100px" version="1.1" style="shape-rendering:geometricPrecision; text-rendering:geometricPrecision; image-rendering:optimizeQuality; fill-rule:evenodd; clip-rule:evenodd"
viewBox="0 0 100 100"
 xmlns:xlink="http://www.w3.org/1999/xlink"
 xmlns:xodm="http://www.corel.com/coreldraw/odm/2003">
 <defs>
  <style type="text/css">
   <![CDATA[
    .fil1 {fill:#8BD0C6}
    .fil0 {fill:#169A95;fill-rule:nonzero}
    .fil2 {fill:#1A9A95;fill-rule:nonzero}
   ]]>
  </style>
 </defs>
 <g id="Layer_x0020_1">
  <metadata id="CorelCorpID_0Corel-Layer"/>
  <g id="_2349923187600">
   <path class="fil0" d="M0.98 13.35c1.28,-2.71 3.98,-4.42 6.97,-4.42l83.43 0c2.99,0 5.7,1.71 6.97,4.42 1.28,2.7 0.89,5.89 -1,8.21l-22.27 27.2c-0.69,-0.06 -1.39,-0.09 -2.1,-0.09 -12.92,0 -23.39,10.47 -23.39,23.39 0,8.64 4.68,16.18 11.64,20.23 -0.59,1.06 -1.49,1.94 -2.62,2.5 -2.11,1.04 -4.6,0.83 -6.47,-0.58l-12.36 -9.27c-1.57,-1.16 -2.47,-3 -2.47,-4.95l0 -15.27 -35.34 -43.18c-1.88,-2.3 -2.28,-5.51 -0.99,-8.19z"/>
   <circle class="fil1" cx="72.98" cy="72.06" r="19.85"/>
   <path class="fil2" d="M73.29 60.99c3.05,0 5.53,2.48 5.53,5.53 0,3.06 -2.48,5.53 -5.53,5.53 -3.05,0 -5.53,-2.47 -5.53,-5.53 0,-3.05 2.48,-5.53 5.53,-5.53zm-0.64 15.52l-0.81 -1.34c-0.27,-0.46 0.06,-1.05 0.59,-1.05l0.86 0 0.85 0c0.54,0 0.87,0.59 0.59,1.05l-0.8 1.34 1.44 5.35 1.71 -6.96c3.33,0.52 5.88,3.4 5.88,6.88 0,0.74 -0.59,1.33 -1.32,1.33l-6.58 0 -3.55 0 -6.57 0c-0.73,0 -1.33,-0.6 -1.33,-1.33 0,-3.48 2.56,-6.36 5.89,-6.88l1.71 6.96 1.44 -5.35 0 0z"/>
  </g>
 </g>
</svg>
