<?xml version="1.0" encoding="UTF-8"?>
<!DOCTYPE svg PUBLIC "-//W3C//DTD SVG 1.1//EN" "http://www.w3.org/Graphics/SVG/1.1/DTD/svg11.dtd">
<!-- Creator: CorelDRAW -->
<svg xmlns="http://www.w3.org/2000/svg" xml:space="preserve" width="512px" height="512px" version="1.1" style="shape-rendering:geometricPrecision; text-rendering:geometricPrecision; image-rendering:optimizeQuality; fill-rule:evenodd; clip-rule:evenodd"
viewBox="0 0 512 512"
 xmlns:xlink="http://www.w3.org/1999/xlink"
 xmlns:xodm="http://www.corel.com/coreldraw/odm/2003"
 enable-background="new 0 0 256 256">
 <defs>
  <style type="text/css">
   <![CDATA[
    .fil1 {fill:#1A9A95;fill-rule:nonzero}
    .fil2 {fill:#46B6B5;fill-rule:nonzero}
    .fil0 {fill:#84DECD;fill-rule:nonzero}
   ]]>
  </style>
 </defs>
 <g id="Layer_x0020_1">
  <metadata id="CorelCorpID_0Corel-Layer"/>
  <path class="fil0" d="M150 132.87c0,58.38 47.13,105.51 105.51,105.51 58.38,0 105.52,-47.13 105.52,-105.51 0,-58.38 -47.33,-105.52 -105.52,-105.52 -58.38,0 -105.51,47.14 -105.51,105.52l0 0z"/>
  <path class="fil1" d="M138.94 272.52l-61.88 53.15c-3.1,2.33 -4.84,6.4 -4.84,10.28l0 135.58c0,7.18 6.4,13.58 13.57,13.58l169.72 0 169.72 0c7.18,0 13.58,-6.41 13.58,-13.58l0 -135.58c0,-3.88 -1.56,-7.95 -4.85,-10.28l-61.88 -53.15c-4.85,-3.88 -11.05,-4.85 -16.68,-0.77 -7.95,5.62 -16.68,11.05 -26.18,15.13l-22.31 145.08c-1.55,10.28 -10.28,18.23 -21.53,18.23l-30.84 0 -1.55 0 -30.84 0c-10.28,0 -19.79,-7.95 -21.53,-18.23l-22.31 -146.05c-8.72,-3.88 -16.68,-8.73 -24.63,-14.36 -2.91,-3.88 -10.09,-3.1 -14.74,0.97z"/>
  <path class="fil0" d="M248.33 431.96c3.88,3.1 9.51,3.1 13.58,0 0,0 20.56,-15.13 20.56,-19.01l-11.05 -70.6c-0.78,-3.88 -3.88,-6.4 -7.96,-6.4l-16.68 0c-3.88,0 -7.17,3.1 -7.95,6.4l-11.06 70.6c0.78,3.88 20.56,19.01 20.56,19.01z"/>
  <path class="fil2" d="M250.66 317.72c2.33,2.32 6.4,2.32 8.73,0l17.46 -22.31 0 0c2.32,-3.1 0,-8.73 -3.88,-8.73l-35.69 0c-4.85,0 -7.18,4.85 -4.85,8.73 0,0 0,0 0,0.78l18.23 21.53z"/>
 </g>
</svg>
