<?xml version="1.0" encoding="UTF-8"?>
<!DOCTYPE svg PUBLIC "-//W3C//DTD SVG 1.1//EN" "http://www.w3.org/Graphics/SVG/1.1/DTD/svg11.dtd">
<!-- Creator: CorelDRAW -->
<svg xmlns="http://www.w3.org/2000/svg" xml:space="preserve" width="100px" height="100px" version="1.1" style="shape-rendering:geometricPrecision; text-rendering:geometricPrecision; image-rendering:optimizeQuality; fill-rule:evenodd; clip-rule:evenodd"
viewBox="0 0 100 100"
 xmlns:xlink="http://www.w3.org/1999/xlink"
 xmlns:xodm="http://www.corel.com/coreldraw/odm/2003">
 <defs>
  <style type="text/css">
   <![CDATA[
    .fil3 {fill:#C5E4D2;fill-rule:nonzero}
    .fil2 {fill:#1A9A95;fill-rule:nonzero}
    .fil0 {fill:#46B6B5;fill-rule:nonzero}
    .fil1 {fill:#84DECD;fill-rule:nonzero}
   ]]>
  </style>
 </defs>
 <g id="Layer_x0020_1">
  <metadata id="CorelCorpID_0Corel-Layer"/>
  <path class="fil0" d="M98.12 65.51c0,-11.94 -9.69,-21.64 -21.64,-21.64 -11.95,0 -21.64,9.7 -21.64,21.64 0,11.95 9.69,21.64 21.64,21.64 11.95,0 21.64,-9.69 21.64,-21.64z"/>
  <path class="fil1" d="M50.03 63.11l-14.42 0c-2.66,0 -4.81,-2.15 -4.81,-4.81l0 -4.81 -28.86 0 0 19.24c0,5.3 4.32,9.61 9.62,9.61l44.51 0c-3.77,-4.56 -6.04,-10.44 -6.04,-16.83 0,-0.81 0.03,-1.61 0.11,-2.4l-0.11 0z"/>
  <path class="fil2" d="M21.18 18.63l0 6.01 -9.62 0c-5.3,0 -9.62,4.31 -9.62,9.61l0 14.43 28.86 0 24.04 0 1.23 0c4.86,-5.87 12.19,-9.62 20.41,-9.62 0.81,0 1.61,0.03 2.41,0.11l0 -4.92c0,-5.3 -4.32,-9.61 -9.62,-9.61l-9.62 0 0 -6.01c0,-4.65 -3.77,-8.42 -8.42,-8.42l-21.63 0c-4.65,0 -8.42,3.77 -8.42,8.42l0 0zm8.42 -1.21l21.63 0c0.67,0 1.21,0.54 1.21,1.21l0 6.01 -24.05 0 0 -6.01c0,-0.67 0.54,-1.21 1.21,-1.21l0 0z"/>
  <path class="fil3" d="M88.37 57.34c0,0.84 -0.67,1.61 -1.78,2.23 -1.36,0.75 -3.37,1.28 -5.68,1.43 -0.17,-0.08 -0.35,-0.16 -0.53,-0.23 -1.83,-0.76 -4.26,-1.2 -6.87,-1.2 -0.39,0 -0.76,0.01 -1.14,0.03l-0.05 -0.03c-1.12,-0.62 -1.78,-1.39 -1.78,-2.23 0,-2.05 3.99,-3.71 8.91,-3.71 4.93,0 8.92,1.66 8.92,3.71zm-16.31 3.77c0.47,-0.04 0.96,-0.06 1.45,-0.06 2.89,0 5.45,0.58 7.08,1.46 1.15,0.63 1.84,1.41 1.84,2.26 0,0.19 -0.04,0.37 -0.1,0.54 -0.22,0.62 -0.79,1.18 -1.63,1.65 0,0 0,0 0,0 0,0.01 -0.01,0.01 -0.02,0.01l0 0 0 0c-0.01,0.01 -0.02,0.01 -0.04,0.02 -1.62,0.9 -4.21,1.49 -7.13,1.49 -2.77,0 -5.24,-0.53 -6.88,-1.35 -0.09,-0.04 -0.17,-0.09 -0.26,-0.14 -1.11,-0.61 -1.78,-1.38 -1.78,-2.22 0,-1.62 2.48,-3 5.95,-3.5 0.49,-0.07 0.99,-0.13 1.52,-0.16l0 0zm11.85 3.66c0,-1.02 -0.49,-1.85 -1.12,-2.48 1.32,-0.2 2.52,-0.53 3.54,-0.95 0.76,-0.32 1.46,-0.71 2.04,-1.19l0 1.65c0,0.89 -0.77,1.72 -2.03,2.36 -0.68,0.34 -1.51,0.64 -2.44,0.86 0.01,-0.08 0.01,-0.16 0.01,-0.25l0 0zm-1.48 4.46c0,0.83 -0.67,1.6 -1.79,2.23 -0.08,0.04 -0.17,0.08 -0.25,0.13 -1.64,0.83 -4.11,1.35 -6.88,1.35 -2.92,0 -5.51,-0.58 -7.13,-1.48 -1.12,-0.63 -1.79,-1.4 -1.79,-2.23l0 -1.65c0.59,0.48 1.29,0.87 2.04,1.19 1.84,0.76 4.27,1.2 6.88,1.2 2.61,0 5.04,-0.44 6.88,-1.2 0.36,-0.15 0.71,-0.32 1.04,-0.51 0.28,-0.16 0.54,-0.33 0.8,-0.52 0.07,-0.05 0.13,-0.11 0.2,-0.16l0 0.16 0 0.27 0 1.22zm1.48 0l0 -1.49 0 -1.2c0.88,-0.2 1.7,-0.44 2.42,-0.74 0.76,-0.32 1.46,-0.71 2.04,-1.19l0 1.65c0,0.48 -0.23,0.97 -0.69,1.43 -0.76,0.76 -2.09,1.38 -3.78,1.78 0.01,-0.08 0.01,-0.16 0.01,-0.24l0 0zm-10.4 5.2c2.61,0 5.04,-0.44 6.88,-1.21 0.75,-0.31 1.46,-0.7 2.04,-1.18l0 1.64c0,2.06 -4,3.72 -8.92,3.72 -4.92,0 -8.92,-1.66 -8.92,-3.72l0 -1.64c0.59,0.48 1.29,0.87 2.04,1.18 1.84,0.77 4.27,1.21 6.88,1.21z"/>
 </g>
</svg>
