<?xml version="1.0" encoding="UTF-8"?>
<!DOCTYPE svg PUBLIC "-//W3C//DTD SVG 1.1//EN" "http://www.w3.org/Graphics/SVG/1.1/DTD/svg11.dtd">
<!-- Creator: CorelDRAW -->
<svg xmlns="http://www.w3.org/2000/svg" xml:space="preserve" width="100px" height="100px" version="1.1" style="shape-rendering:geometricPrecision; text-rendering:geometricPrecision; image-rendering:optimizeQuality; fill-rule:evenodd; clip-rule:evenodd"
viewBox="0 0 100 100"
 xmlns:xlink="http://www.w3.org/1999/xlink"
 xmlns:xodm="http://www.corel.com/coreldraw/odm/2003"
 enable-background="new 0 0 256 256">
 <defs>
  <style type="text/css">
   <![CDATA[
    .fil0 {fill:#C5E3D1}
    .fil3 {fill:#1A9A95;fill-rule:nonzero}
    .fil1 {fill:#46B6B5;fill-rule:nonzero}
    .fil2 {fill:#84DECD;fill-rule:nonzero}
   ]]>
  </style>
 </defs>
 <g id="Layer_x0020_1">
  <metadata id="CorelCorpID_0Corel-Layer"/>
  <g id="_1879780728128">
   <ellipse class="fil0" cx="49.74" cy="49.94" rx="45.36" ry="45.22"/>
   <path class="fil1" d="M46.53 1.36c11.33,-0.74 21.75,2.61 29.06,7.2 7.4,4.67 13.44,11.12 17.36,18.77 3.85,7.48 6.74,18.18 5.05,30.01 -1.12,7.77 -3.93,13.97 -7.65,19.55 -1.2,1.78 -2.44,4.3 -4.46,4.46 -1.99,0.17 -3.56,-1.11 -3.81,-3.05 -0.2,-1.49 0.62,-2.4 1.41,-3.52 2.15,-2.85 4.09,-6.61 5.33,-9.84 1.78,-4.63 3.18,-10.5 2.73,-17.24 -0.83,-12.6 -5.71,-21 -12.57,-27.86 -3.43,-3.43 -7.77,-6.2 -12.11,-8.18 -4.63,-2.11 -9.67,-3.43 -16.49,-3.72 -6.25,-0.25 -12.2,1.32 -16.91,3.26 -9.47,3.93 -16.45,10.79 -20.96,19.56 -2.32,4.46 -4.01,9.5 -4.46,15.7 -1,12.74 3.43,23.15 9.59,30.35 6.03,7.07 14.3,12.81 25.87,14.51 12.16,1.77 21.33,-1.45 28.49,-6 1.15,-0.74 2.02,-1.53 3.39,-1.4 1.9,0.12 3.3,1.32 3.26,3.51 -0.04,2.03 -1.82,3.1 -3.26,4.05 -4.55,2.81 -9.72,5 -15.51,6.2 -8.39,1.82 -18.64,0.83 -25.42,-1.4 -13.93,-4.59 -24.64,-14.43 -30.01,-28.07 -2.81,-7.11 -4.22,-16.16 -3.06,-24.89 1.12,-8.47 4.18,-15.25 8.06,-20.91 5.75,-8.4 13.85,-15.26 24.8,-18.77 3.64,-1.16 8.27,-2.03 12.28,-2.28z"/>
   <path class="fil1" d="M71.67 35.96c-7.16,3.93 -14.64,7.53 -21.83,11.37 -7.4,-4.5 -14.64,-9.17 -21.95,-13.76 6.94,-3.72 14.26,-7.57 21.2,-10.92 7.57,4.34 14.93,8.97 22.58,13.31z"/>
   <path class="fil2" d="M25.04 37.37c7.56,4.46 15.08,8.93 22.48,13.52 0,8.72 0,17.48 0,26.21 -0.49,0.12 -0.95,-0.33 -1.32,-0.54 -6.86,-4.13 -14.34,-8.56 -21.16,-12.9 0,-8.72 0,-17.48 0,-26.29z"/>
   <path class="fil3" d="M74.19 65.77c-7.07,3.97 -14.84,7.81 -21.95,11.37 0,-8.81 0,-17.61 0,-26.42 7.27,-3.72 14.59,-7.44 21.82,-11.24 0.25,8.56 0.04,17.57 0.13,26.29z"/>
  </g>
 </g>
</svg>
