<?xml version="1.0" encoding="UTF-8"?>
<!DOCTYPE svg PUBLIC "-//W3C//DTD SVG 1.1//EN" "http://www.w3.org/Graphics/SVG/1.1/DTD/svg11.dtd">
<!-- Creator: CorelDRAW -->
<svg xmlns="http://www.w3.org/2000/svg" xml:space="preserve" width="100px" height="100px" version="1.1" style="shape-rendering:geometricPrecision; text-rendering:geometricPrecision; image-rendering:optimizeQuality; fill-rule:evenodd; clip-rule:evenodd"
viewBox="0 0 100 100"
 xmlns:xlink="http://www.w3.org/1999/xlink"
 xmlns:xodm="http://www.corel.com/coreldraw/odm/2003">
 <defs>
  <style type="text/css">
   <![CDATA[
    .fil1 {fill:#46B6B5;fill-rule:nonzero}
    .fil0 {fill:#C3EDD5;fill-rule:nonzero}
   ]]>
  </style>
 </defs>
 <g id="Layer_x0020_1">
  <metadata id="CorelCorpID_0Corel-Layer"/>
  <g id="_1879803595312">
   <path class="fil0" d="M92.54 50.11c0,3.06 -0.67,7.11 -0.88,8.16 -9.87,0.63 -17.61,8.83 -17.61,18.78 0,3.05 1.05,5.94 1.51,7.03l-11.38 6.27c-0.04,0 -0.13,0 -0.13,0 0,0 0,0 0,0 -0.46,-0.5 -2.09,-2.17 -4.35,-3.89 -3.68,-2.72 -7.19,-4.1 -10.41,-4.1 -3.22,0 -6.69,1.38 -10.33,4.06 -2.47,1.8 -4.14,3.6 -4.31,3.76 0,0 -0.08,0.05 -0.17,0.05l-10.96 -6.15c0.46,-1.09 1.51,-3.98 1.51,-7.03 0,-9.95 -7.7,-18.15 -17.61,-18.78 -0.21,-1.17 -0.88,-5.14 -0.88,-8.16 0,-3.05 0.67,-7.11 0.88,-8.15 9.87,-0.63 17.61,-8.83 17.61,-18.78 0,-3.1 -1.09,-6.07 -1.51,-7.03l11.63 -6.36c0.13,0 0.25,0.04 0.21,0.04 0,0 1.76,1.84 4.31,3.68 3.6,2.56 7.03,3.89 10.16,3.89 3.1,0 6.53,-1.29 10.08,-3.8 2.47,-1.76 4.23,-3.51 4.23,-3.56 0,0 0.12,-0.04 0.29,-0.04l11.21 6.23c-0.38,0.97 -1.5,3.94 -1.5,7.03 0,9.96 7.69,18.15 17.6,18.78 0.13,1.09 0.8,5.02 0.8,8.07z"/>
   <path class="fil1" d="M96.95 40.79c-0.53,-2.84 -2.26,-4.69 -4.36,-4.69l-0.49 0c-6.78,0 -12.29,-5.51 -12.29,-12.3 0,-2.22 1.06,-4.68 1.06,-4.68 1.11,-2.51 0.25,-5.6 -2.01,-7.2l-12.21 -6.79 -0.13 -0.04c-0.74,-0.33 -1.56,-0.49 -2.42,-0.49 -1.81,0 -3.54,0.7 -4.69,1.89 -1.44,1.48 -6.05,5.39 -9.66,5.39 -3.71,0 -8.31,-3.99 -9.75,-5.51 -1.15,-1.24 -2.92,-1.94 -4.73,-1.94 -0.86,0 -1.64,0.17 -2.38,0.5l-12.71 6.91 -0.12 0.08c-2.27,1.56 -3.13,4.65 -2.02,7.2 0,0 1.07,2.46 1.07,4.68 0,6.79 -5.51,12.3 -12.29,12.3l-0.5 0c-2.1,0 -3.82,1.85 -4.36,4.73 -0.24,1.27 -0.98,5.8 -0.98,9.45 0,3.66 0.78,8.15 1.02,9.5 0.54,2.84 2.27,4.69 4.36,4.69l0.5 0c6.78,0 12.29,5.51 12.29,12.3 0,2.22 -1.07,4.68 -1.07,4.68 -1.11,2.51 -0.24,5.6 2.02,7.2l12.01 6.74 0.12 0.05c0.74,0.33 1.56,0.49 2.42,0.49 1.81,0 3.58,-0.74 4.73,-1.97 1.36,-1.48 6.13,-5.72 9.91,-5.72 3.79,0 8.47,4.24 9.95,5.84 1.16,1.27 2.92,2.01 4.78,2.01 0.82,0 1.64,-0.16 2.38,-0.49l12.46 -6.87 0.12 -0.08c2.26,-1.56 3.13,-4.65 2.02,-7.19 0,0 -1.07,-2.47 -1.07,-4.69 0,-6.79 5.51,-12.3 12.29,-12.3l0.5 0c2.14,0 3.82,-1.85 4.36,-4.69 0,-0.04 1.02,-5.34 1.02,-9.5 -0.12,-4.07 -1.11,-9.29 -1.15,-9.49zm-5.18 9.5c0,3 -0.66,6.99 -0.86,8.01 -9.71,0.62 -17.31,8.68 -17.31,18.47 0,3 1.02,5.84 1.48,6.91l-11.19 6.16c-0.04,0 -0.12,0 -0.12,0 0,0 0,0 0,0 -0.45,-0.49 -2.06,-2.13 -4.28,-3.82 -3.62,-2.67 -7.07,-4.03 -10.24,-4.03 -3.16,0 -6.58,1.36 -10.15,3.99 -2.43,1.77 -4.08,3.53 -4.24,3.7 0,0 -0.08,0.04 -0.16,0.04l-10.78 -6.04c0.45,-1.07 1.48,-3.91 1.48,-6.91 0,-9.79 -7.56,-17.85 -17.31,-18.47 -0.21,-1.15 -0.86,-5.05 -0.86,-8.01 0,-3.01 0.65,-7 0.86,-8.02 9.7,-0.62 17.31,-8.68 17.31,-18.47 0,-3.04 -1.07,-5.96 -1.48,-6.91l11.43 -6.25c0.13,0 0.25,0.05 0.21,0.05 0,0 1.73,1.81 4.23,3.61 3.54,2.51 6.91,3.83 10,3.83 3.04,0 6.41,-1.28 9.91,-3.74 2.42,-1.73 4.15,-3.46 4.15,-3.5 0,0 0.12,-0.04 0.29,-0.04l11.02 6.13c-0.37,0.94 -1.48,3.86 -1.48,6.91 0,9.78 7.56,17.84 17.31,18.46 0.12,1.07 0.78,4.93 0.78,7.94z"/>
   <path class="fil1" d="M49.54 33.09c-9.37,0 -16.98,7.61 -16.98,16.98 0,9.38 7.61,16.98 16.98,16.98 9.38,0 16.98,-7.6 16.98,-16.98 -0.04,-9.33 -7.64,-16.98 -16.98,-16.98zm0 27.76c-5.92,0 -10.77,-4.86 -10.77,-10.78 0,-5.92 4.81,-10.77 10.77,-10.77 5.92,0 10.77,4.81 10.77,10.77 -0.04,5.92 -4.85,10.78 -10.77,10.78z"/>
  </g>
 </g>
</svg>
