<?xml version="1.0" encoding="UTF-8"?>
<!DOCTYPE svg PUBLIC "-//W3C//DTD SVG 1.1//EN" "http://www.w3.org/Graphics/SVG/1.1/DTD/svg11.dtd">
<!-- Creator: CorelDRAW -->
<svg xmlns="http://www.w3.org/2000/svg" xml:space="preserve" width="100px" height="100px" version="1.1" style="shape-rendering:geometricPrecision; text-rendering:geometricPrecision; image-rendering:optimizeQuality; fill-rule:evenodd; clip-rule:evenodd"
viewBox="0 0 100 100"
 xmlns:xlink="http://www.w3.org/1999/xlink"
 xmlns:xodm="http://www.corel.com/coreldraw/odm/2003">
 <defs>
  <style type="text/css">
   <![CDATA[
    .str0 {stroke:#373435;stroke-width:0.39;stroke-miterlimit:2.61313}
    .fil0 {fill:#C7E5D4}
    .fil1 {fill:#41B7B6}
   ]]>
  </style>
 </defs>
 <g id="Layer_x0020_1">
  <metadata id="CorelCorpID_0Corel-Layer"/>
  <circle class="fil0 str0" cx="49.02" cy="50.39" r="24.41"/>
  <path class="fil1" d="M49.4 26.99c12.87,0 23.3,10.44 23.3,23.3 0,12.87 -10.43,23.3 -23.3,23.3 -12.87,0 -23.3,-10.43 -23.3,-23.3 0,-12.86 10.43,-23.3 23.3,-23.3zm44.48 12.65c-0.27,-0.65 -0.02,-0.06 -0.3,-0.63l-7.29 -13.09c-2.39,-4.01 -5.08,-9.18 -7.68,-13.62 -0.92,-1.57 -2.06,-2.56 -3.38,-3.72l-2.09 -1.46c-2.96,-1.53 -5.25,-2.07 -7.69,-2.24l-7.64 0 -21.06 0c-3.08,0.09 -5.6,0.24 -6.83,0.51 -1.88,0.42 -3.53,1.24 -4.93,2.18 -0.76,0.51 -1.36,0.93 -1.99,1.56l-1.3 1.33c-0.44,0.74 -0.17,0.1 -0.14,0.59 -0.57,0.23 -0.16,-0.1 -0.69,0.45 -0.03,0.03 -0.32,0.49 -0.36,0.56l-8 14.23c-0.55,0.92 -0.97,1.7 -1.48,2.64 -0.51,0.92 -0.98,1.7 -1.49,2.62 -0.51,0.92 -0.87,1.62 -1.38,2.54 -2.8,5.05 -6.03,9.75 -6.6,15l0 3.17c0.21,1.87 0.79,3.82 1.87,5.88l5.76 10.32c0.53,0.88 0.96,1.71 1.47,2.63 0.51,0.91 1,1.71 1.49,2.62l4.35 7.8c0.52,0.89 0.92,1.72 1.45,2.67 2.52,4.53 4.8,8.43 9.99,10.38 2.51,0.94 3.46,1.14 6.89,1.14l24.29 0 4.44 0c4.49,-0.07 8.82,-0.62 11.96,-3.78 1.04,-1.05 0.81,-0.61 2.04,-2.07 1.31,-1.55 10.25,-17.56 11.77,-20.56 2.71,-5.35 7.06,-10.75 7.7,-16.78 0.27,-2.61 -0.04,-5.45 -0.57,-7.41 -0.32,-1.19 -1.93,-4.96 -2.58,-5.46z"/>
 </g>
</svg>
