<?xml version="1.0" encoding="UTF-8"?>
<!DOCTYPE svg PUBLIC "-//W3C//DTD SVG 1.1//EN" "http://www.w3.org/Graphics/SVG/1.1/DTD/svg11.dtd">
<!-- Creator: CorelDRAW -->
<svg xmlns="http://www.w3.org/2000/svg" xml:space="preserve" width="472px" height="472px" version="1.1" style="shape-rendering:geometricPrecision; text-rendering:geometricPrecision; image-rendering:optimizeQuality; fill-rule:evenodd; clip-rule:evenodd"
viewBox="0 0 472 472"
 xmlns:xlink="http://www.w3.org/1999/xlink"
 xmlns:xodm="http://www.corel.com/coreldraw/odm/2003">
 <defs>
  <style type="text/css">
   <![CDATA[
    .fil3 {fill:#C5E4D2;fill-rule:nonzero}
    .fil2 {fill:#43B5B5;fill-rule:nonzero}
    .fil1 {fill:#1A9A95;fill-rule:nonzero}
    .fil0 {fill:#84DECD;fill-rule:nonzero}
   ]]>
  </style>
 </defs>
 <g id="Layer_x0020_1">
  <metadata id="CorelCorpID_0Corel-Layer"/>
  <path class="fil0" d="M353.07 177.32l-347.56 0 0 211.03c0,20.56 16.68,37.24 37.23,37.24l255.04 0c-30.25,-21.27 -50.03,-56.44 -50.03,-96.24 0,-60.79 46.15,-110.81 105.32,-116.93l0 -35.1z"/>
  <path class="fil1" d="M79.99 53.19l0 24.83 -37.25 0c-20.55,0 -37.23,16.68 -37.23,37.24l0 37.24 347.56 0 0 -37.24c0,-20.56 -16.68,-37.24 -37.23,-37.24l-37.24 0 0 -24.83c0,-13.73 -11.1,-24.82 -24.83,-24.82 -13.73,0 -24.83,11.09 -24.83,24.82l0 24.83 -99.3 0 0 -24.83c0,-13.73 -11.1,-24.82 -24.83,-24.82 -13.73,0 -24.82,11.09 -24.82,24.82z"/>
  <path class="fil2" d="M466.85 329.35c0,56.08 -45.45,101.54 -101.53,101.54 -56.09,0 -101.54,-45.46 -101.54,-101.54 0,-56.08 45.45,-101.53 101.54,-101.53 56.08,0 101.53,45.45 101.53,101.53z"/>
  <path class="fil3" d="M365.32 335.7c15.78,0 28.55,-12.77 28.55,-28.56 0,-15.78 -12.77,-28.55 -28.55,-28.55 -15.79,0 -28.56,12.77 -28.56,28.55 0,15.79 12.77,28.56 28.56,28.56z"/>
  <path class="fil3" d="M422.03 380.2c-8.76,-15.23 -25.22,-25.46 -44.02,-25.46l-25.39 0c-18.8,0 -35.25,10.23 -44.02,25.46 13.96,15.55 34.19,25.3 56.72,25.3 22.52,0 42.75,-9.79 56.71,-25.3l0 0z"/>
 </g>
</svg>
