<?xml version="1.0" encoding="UTF-8"?>
<!DOCTYPE svg PUBLIC "-//W3C//DTD SVG 1.1//EN" "http://www.w3.org/Graphics/SVG/1.1/DTD/svg11.dtd">
<!-- Creator: CorelDRAW -->
<svg xmlns="http://www.w3.org/2000/svg" xml:space="preserve" width="512px" height="512px" version="1.1" style="shape-rendering:geometricPrecision; text-rendering:geometricPrecision; image-rendering:optimizeQuality; fill-rule:evenodd; clip-rule:evenodd"
viewBox="0 0 512 512"
 xmlns:xlink="http://www.w3.org/1999/xlink"
 xmlns:xodm="http://www.corel.com/coreldraw/odm/2003"
 enable-background="new 0 0 256 256">
 <defs>
  <style type="text/css">
   <![CDATA[
    .fil0 {fill:#C5E3D1}
    .fil2 {fill:#179A95}
    .fil1 {fill:#46B6B5;fill-rule:nonzero}
   ]]>
  </style>
 </defs>
 <g id="Layer_x0020_1">
  <metadata id="CorelCorpID_0Corel-Layer"/>
  <rect class="fil0" x="94" y="66.58" width="320" height="358.42"/>
  <g>
   <path class="fil1" d="M441.58 485.98l-375.88 0c-11.96,0 -21.76,-9.8 -21.76,-21.77l0 -375.87c0,-11.96 9.8,-21.76 21.76,-21.76l36.08 0 0 21.76c0,23.92 19.41,43.33 43.33,43.33 23.93,0 43.34,-19.41 43.34,-43.33l0 -21.76 21.76 0 0 21.76c0,23.92 19.41,43.33 43.33,43.33 23.92,0 43.33,-19.41 43.33,-43.33l0 -21.76 21.77 0 0 21.76c0,23.92 19.41,43.33 43.33,43.33 23.92,0 43.33,-19.41 43.33,-43.33l0 -21.76 36.08 0c11.96,0 21.77,9.6 21.77,21.76l0 375.88c0.19,11.96 -9.42,21.76 -21.57,21.76l0 0zm-57.84 -296.46l-260.19 0c-11.97,0 -21.77,9.6 -21.77,21.76 0,11.96 9.8,21.76 21.77,21.76l260.38 0c11.96,0 21.77,-9.8 21.77,-21.76 -0.2,-11.96 -9.81,-21.76 -21.96,-21.76l0 0zm0 94.11l-260.19 0c-11.97,0 -21.77,9.61 -21.77,21.77 0,11.96 9.8,21.76 21.77,21.76l260.38 0c11.96,0 21.77,-9.8 21.77,-21.76 -0.2,-12.16 -9.81,-21.77 -21.96,-21.77l0 0zm3.72 93.92l-267.44 0c-10,0 -18.04,8.04 -18.04,18.04 0,10 8.04,18.04 18.04,18.04l267.44 0c10,0 18.04,-8.04 18.04,-18.04 0,-10 -8.04,-18.04 -18.04,-18.04l0 0zm-25.29 -267.44c-11.96,0 -21.77,-9.81 -21.77,-21.77l0 -43.33c0,-11.96 9.81,-21.77 21.77,-21.77 11.96,0 21.76,9.61 21.76,21.77l0 43.33c-0.19,11.96 -9.8,21.77 -21.76,21.77l0 0zm-108.43 0c-11.96,0 -21.77,-9.81 -21.77,-21.77l0 -43.33c0,-11.96 9.81,-21.77 21.77,-21.77 11.96,0 21.76,9.61 21.76,21.77l0 43.33c-0.19,11.96 -9.8,21.77 -21.76,21.77l0 0zm-108.43 0c-11.96,0 -21.77,-9.81 -21.77,-21.77l0.01 -43.33c0,-11.96 9.8,-21.77 21.76,-21.77 11.96,0 21.76,9.61 21.76,21.77l0 43.33c-0.19,11.96 -9.8,21.77 -21.76,21.77z"/>
  </g>
  <rect class="fil2" x="339.5" y="22.04" width="45" height="88.11" rx="22.5" ry="11.35"/>
  <rect class="fil2" x="231" y="22.04" width="45" height="88.11" rx="22.5" ry="11.35"/>
  <rect class="fil2" x="123" y="22.04" width="45" height="88.11" rx="22.5" ry="11.35"/>
 </g>
</svg>
