<?xml version="1.0" encoding="UTF-8"?>
<!DOCTYPE svg PUBLIC "-//W3C//DTD SVG 1.1//EN" "http://www.w3.org/Graphics/SVG/1.1/DTD/svg11.dtd">
<!-- Creator: CorelDRAW -->
<svg xmlns="http://www.w3.org/2000/svg" xml:space="preserve" width="512px" height="512px" version="1.1" style="shape-rendering:geometricPrecision; text-rendering:geometricPrecision; image-rendering:optimizeQuality; fill-rule:evenodd; clip-rule:evenodd"
viewBox="0 0 512 512"
 xmlns:xlink="http://www.w3.org/1999/xlink"
 xmlns:xodm="http://www.corel.com/coreldraw/odm/2003"
 enable-background="new 0 0 256 256">
 <defs>
  <style type="text/css">
   <![CDATA[
    .fil0 {fill:#FEFEFE;fill-rule:nonzero}
   ]]>
  </style>
 </defs>
 <g id="Layer_x0020_1">
  <metadata id="CorelCorpID_0Corel-Layer"/>
  <g id="_2997984874000">
   <g>
    <g>
     <path class="fil0" d="M178.81 218.62l-96.98 0c-26.79,0 -48.49,-21.7 -48.49,-48.49l0 -96.98c0,-26.79 21.7,-48.49 48.49,-48.49l96.98 0c26.8,0 48.49,21.7 48.49,48.49l0 96.98c0,26.79 -21.69,48.49 -48.49,48.49z"/>
     <path class="fil0" d="M478.62 170.13c0,26.79 -21.69,48.49 -48.49,48.49l-96.98 0c-26.79,0 -48.49,-21.7 -48.49,-48.49l0 -96.98c0,-26.79 21.7,-48.49 48.49,-48.49l96.98 0c26.8,0 48.49,21.7 48.49,48.49l0 96.98 0 0z"/>
     <path class="fil0" d="M227.3 430.51c0,26.79 -21.69,48.49 -48.49,48.49l-96.98 0c-26.79,0 -48.49,-21.7 -48.49,-48.49l0 -96.98c0,-26.8 21.7,-48.49 48.49,-48.49l96.98 0c26.8,0 48.49,21.69 48.49,48.49l0 96.98z"/>
     <path class="fil0" d="M430.13 479l-96.98 0c-26.79,0 -48.49,-21.7 -48.49,-48.49l0 -96.98c0,-26.8 21.7,-48.49 48.49,-48.49l96.98 0c26.8,0 48.49,21.69 48.49,48.49l0 96.98c0,26.79 -21.69,48.49 -48.49,48.49z"/>
    </g>
   </g>
  </g>
 </g>
</svg>
