<?xml version="1.0" encoding="UTF-8"?>
<!DOCTYPE svg PUBLIC "-//W3C//DTD SVG 1.1//EN" "http://www.w3.org/Graphics/SVG/1.1/DTD/svg11.dtd">
<!-- Creator: CorelDRAW -->
<svg xmlns="http://www.w3.org/2000/svg" xml:space="preserve" width="512px" height="512px" version="1.1" style="shape-rendering:geometricPrecision; text-rendering:geometricPrecision; image-rendering:optimizeQuality; fill-rule:evenodd; clip-rule:evenodd"
viewBox="0 0 512 512"
 xmlns:xlink="http://www.w3.org/1999/xlink"
 xmlns:xodm="http://www.corel.com/coreldraw/odm/2003"
 enable-background="new 0 0 256 256">
 <defs>
  <style type="text/css">
   <![CDATA[
    .fil0 {fill:#FEFEFE;fill-rule:nonzero}
   ]]>
  </style>
 </defs>
 <g id="Layer_x0020_1">
  <metadata id="CorelCorpID_0Corel-Layer"/>
  <g id="_2998052110880">
   <g>
    <g>
     <g>
      <path class="fil0" d="M165.46 64.2c-13.58,3 -27.17,12.35 -35.29,24.53 -10.76,15.88 -12,38.3 -3.35,55.41 10.06,19.77 28.41,31.06 50.47,31.06 20.47,0 38.29,-10.23 48.88,-28.23 6.18,-10.24 8.65,-27 6.18,-39.36 -4.06,-19.41 -19.06,-35.82 -38.3,-42 -8.47,-2.64 -20.29,-3.17 -28.59,-1.41z"/>
      <path class="fil0" d="M319 140.97c-25.41,6.35 -42.53,28.41 -42.53,54.53 0,26.29 16.94,48 42.53,54.53 12.88,3.17 25.94,1.76 38.64,-4.59 6.18,-3.18 9,-5.12 14.3,-10.41 5.47,-5.47 7.23,-7.94 10.41,-14.3 8.29,-16.94 8.29,-33.35 0.18,-49.94 -6.36,-13.23 -17.83,-23.47 -32.12,-28.23 -9,-3.36 -22.24,-4.06 -31.41,-1.59z"/>
      <path class="fil0" d="M100.17 191.79c-25.24,6.35 -42.53,24.88 -50.47,54l-2.12 7.77 -0.18 58.23 -0.35 58.59 23.65 0 23.65 0 0 -51.17 0 -51.18 6.53 0 6.53 0 0 51.17 0 51.18 39 0 39 0 0.35 -21c0.35,-16.94 0.7,-22.23 2.12,-27.88 0.88,-3.88 1.58,-7.06 1.41,-7.06 -0.18,-0.18 -2.12,2.12 -4.24,4.94 -2.29,2.83 -4.94,5.65 -5.82,6.53 -1.77,1.59 -0.18,3.18 -20.29,-20.64 -1.06,-1.06 -0.18,-8.12 6,-49.42l7.06 -48 -6.01 -6c-3.35,-3.17 -6.7,-7.23 -7.41,-9l-1.41 -3 -24.53 0c-23.29,0.18 -25.41,0.18 -32.47,1.94z"/>
      <path class="fil0" d="M197.05 192.85c-0.88,1.77 -4.23,5.82 -7.41,9l-6 5.82 6.35 43.59c3.53,23.83 6.53,43.59 6.71,43.59 0.18,0 1.76,-2.12 3.18,-4.76 11.47,-19.41 28.76,-32.47 50.12,-38.12 6.35,-1.77 10.58,-2.12 20.64,-2.47l12.53 -0.36 -4.41 -4.58c-5.65,-6 -9,-10.94 -12.71,-19.06 -4.05,-8.47 -5.82,-15.36 -6.35,-24.88l-0.53 -7.77 -4.41 -1.06c-3.18,-0.88 -11.82,-1.23 -30.18,-1.41l-25.94 -0.71 -1.59 3.18z"/>
      <path class="fil0" d="M253.88 267.85c-23.3,6.18 -41.3,25.77 -48.89,53.3l-2.29 8.11 -0.18 58.77 -0.17 58.76 23.12 0 23.29 0 0.18 -51.35 0.17 -51.53 6.71 -0.18 6.71 -0.17 0 51.7 0 51.71 69.88 0 69.88 0 0.18 -51.35 0.17 -51.53 6.71 -0.18 6.71 -0.18 0.17 51.53 0.18 51.53 23.47 0.18 23.3 0.18 0 -55.24c0,-58.94 -0.18,-62.65 -4.24,-74.82 -7.06,-21.89 -21.71,-38.47 -40.23,-45.89 -9.53,-3.88 -15.53,-4.41 -41.3,-4.41l-24 0 -1.41 2.65c-0.71,1.41 -4.24,5.47 -7.42,9l-6 6.18 7.06 48 7.06 48 -7.94 9.35c-4.41,5.12 -8.82,10.41 -10.06,11.82l-2.12 2.48 -10.06 -11.83 -10.05 -12 7.05 -48 7.06 -48 -6.53 -6.71c-3.53,-3.7 -6.88,-7.59 -7.23,-8.82l-0.88 -2.12 -26.12 0c-22.77,-0.53 -26.82,-0.35 -31.94,1.06z"/>
     </g>
    </g>
   </g>
  </g>
 </g>
</svg>
