<?xml version="1.0" encoding="UTF-8"?>
<!DOCTYPE svg PUBLIC "-//W3C//DTD SVG 1.1//EN" "http://www.w3.org/Graphics/SVG/1.1/DTD/svg11.dtd">
<!-- Creator: CorelDRAW -->
<svg xmlns="http://www.w3.org/2000/svg" xml:space="preserve" width="512px" height="512px" version="1.1" style="shape-rendering:geometricPrecision; text-rendering:geometricPrecision; image-rendering:optimizeQuality; fill-rule:evenodd; clip-rule:evenodd"
viewBox="0 0 512 512"
 xmlns:xlink="http://www.w3.org/1999/xlink"
 xmlns:xodm="http://www.corel.com/coreldraw/odm/2003"
 enable-background="new 0 0 256 256">
 <defs>
  <style type="text/css">
   <![CDATA[
    .fil0 {fill:#FEFEFE;fill-rule:nonzero}
   ]]>
  </style>
 </defs>
 <g id="Layer_x0020_1">
  <metadata id="CorelCorpID_0Corel-Layer"/>
  <g id="_2998369806480">
   <g>
    <g>
     <path class="fil0" d="M108.41 120.06c0,7.51 -6.08,13.59 -13.58,13.59l-66.91 0c-7.5,0 -13.59,-6.08 -13.59,-13.59l0 -65.69c0,-7.5 6.09,-13.58 13.59,-13.58l66.91 0c7.5,0 13.58,6.08 13.58,13.58l0 65.69 0 0zm384.21 -9.93c0,13.58 -10.95,24.53 -24.54,24.53l-286.68 0c-13.58,0 -24.53,-10.95 -24.53,-24.53l0 -45.82c0,-13.59 10.95,-24.54 24.53,-24.54l286.48 0.01c13.59,0 24.53,10.94 24.53,24.53l0.21 45.82 0 0zm-384.21 176.8c0,7.5 -6.08,13.58 -13.58,13.58l-66.91 0c-7.5,0 -13.59,-6.08 -13.59,-13.58l0 -65.69c0,-7.51 6.09,-13.59 13.59,-13.59l66.91 0c7.5,0 13.58,6.08 13.58,13.59l0 65.69 0 0zm384.21 -9.94c0,13.58 -10.95,24.53 -24.54,24.53l-286.68 0c-13.58,0 -24.53,-10.95 -24.53,-24.53l0 -45.82c0,-13.58 10.95,-24.53 24.53,-24.53l286.48 0c13.59,0 24.53,10.95 24.53,24.53l0.21 45.82 0 0zm-384.21 178.01c0,7.51 -6.08,13.59 -13.58,13.59l-66.91 0c-7.5,0 -13.59,-6.09 -13.59,-13.59l0 -65.69c0,-7.5 6.09,-13.58 13.59,-13.58l66.91 0c7.5,0 13.58,6.08 13.58,13.58l0 65.69 0 0zm384.21 -9.93c0,13.58 -10.95,24.53 -24.54,24.53l-286.68 0c-13.58,0 -24.53,-10.95 -24.53,-24.53l0 -45.82c0,-13.59 10.95,-24.54 24.53,-24.54l286.48 0.01c13.59,0 24.53,10.94 24.53,24.53l0.21 45.82 0 0z"/>
    </g>
   </g>
  </g>
 </g>
</svg>
