<?xml version="1.0" encoding="UTF-8"?>
<!DOCTYPE svg PUBLIC "-//W3C//DTD SVG 1.1//EN" "http://www.w3.org/Graphics/SVG/1.1/DTD/svg11.dtd">
<!-- Creator: CorelDRAW -->
<svg xmlns="http://www.w3.org/2000/svg" xml:space="preserve" width="512px" height="512px" version="1.1" style="shape-rendering:geometricPrecision; text-rendering:geometricPrecision; image-rendering:optimizeQuality; fill-rule:evenodd; clip-rule:evenodd"
viewBox="0 0 512 512"
 xmlns:xlink="http://www.w3.org/1999/xlink"
 xmlns:xodm="http://www.corel.com/coreldraw/odm/2003"
 enable-background="new 0 0 256 256">
 <defs>
  <style type="text/css">
   <![CDATA[
    .fil0 {fill:#FEFEFE;fill-rule:nonzero}
   ]]>
  </style>
 </defs>
 <g id="Layer_x0020_1">
  <metadata id="CorelCorpID_0Corel-Layer"/>
  <g id="_2998369840128">
   <g>
    <g>
     <g>
      <path class="fil0" d="M32.36 123.94c-6.39,3.87 -6,-4.65 -6,123.96 0,113.9 0,116.61 1.93,119.52 3.88,6.39 -15.49,6 226.83,6 215.97,0 219.46,0 222.36,-1.93 5.81,-3.68 6.01,-3.88 6.01,-41.84 0,-37 0,-37.97 -5.04,-41.26 -1.16,-0.78 -3.87,-1.55 -6,-1.55 -17.82,0 -35.45,-11.04 -42.81,-26.73 -7.94,-17.05 -5.81,-35.26 6,-49.98 7.56,-9.49 21.7,-16.66 33.51,-16.66 6.4,0 9.3,-1.35 12.21,-5.61 2.13,-3.1 2.13,-3.68 2.13,-29.83 0,-29.45 -0.2,-30.61 -6.01,-34.09 -2.9,-1.94 -6.39,-1.94 -222.56,-1.94 -216.17,0 -219.65,0 -222.56,1.94zm331.03 33.7c5.04,2.52 5.82,5.42 5.82,21.5 0,16.08 -0.78,18.79 -5.82,21.5 -5.81,2.91 -12.97,0.97 -15.69,-4.26 -2.13,-4.07 -2.13,-30.21 0,-34.28 2.91,-5.43 10.08,-7.36 15.69,-4.46zm-182.66 34.29c5.82,2.9 5.82,2.32 5.82,55.78 0,53.46 0,52.69 -5.82,55.79 -4.26,2.13 -98.59,2.13 -102.85,0 -5.81,-2.91 -5.62,-2.33 -5.62,-55.79 0,-53.07 0,-52.68 5.62,-55.59 3.68,-2.13 98.59,-2.13 102.85,-0.19zm125.52 0c5.23,2.71 7.17,10.07 4.26,15.69 -2.9,5.81 -2.32,5.81 -55.78,5.81 -53.46,0 -52.69,0 -55.79,-5.81 -2.9,-5.62 -0.97,-12.98 4.07,-15.69 4.26,-1.94 99.17,-1.94 103.24,0zm57.14 34.28c5.04,2.52 5.82,5.42 5.82,21.5 0,16.08 -0.78,18.79 -5.82,21.5 -5.81,2.91 -12.97,0.97 -15.69,-4.26 -2.13,-4.07 -2.13,-30.22 0,-34.28 2.91,-5.43 10.08,-7.36 15.69,-4.46zm-57.14 11.43c5.23,2.71 7.17,10.07 4.26,15.69 -2.9,5.81 -2.32,5.81 -55.78,5.81 -53.46,0 -52.69,0 -55.79,-5.81 -2.9,-5.62 -0.97,-12.98 4.07,-15.69 4.26,-1.94 99.17,-1.94 103.24,0zm0 45.71c5.23,2.71 7.17,10.07 4.26,15.69 -2.9,5.81 -2.32,5.81 -55.78,5.81 -53.46,0 -52.69,0 -55.79,-5.81 -2.9,-5.62 -0.97,-12.98 4.07,-15.69 4.26,-1.93 99.17,-1.93 103.24,0zm57.14 11.43c5.04,2.52 5.82,5.42 5.82,21.5 0,16.08 -0.78,18.79 -5.82,21.5 -5.81,2.91 -12.97,0.97 -15.69,-4.26 -2.13,-4.07 -2.13,-30.22 0,-34.28 2.91,-5.43 10.08,-7.36 15.69,-4.46z"/>
     </g>
    </g>
   </g>
  </g>
 </g>
</svg>
