<?xml version="1.0" encoding="UTF-8"?>
<!DOCTYPE svg PUBLIC "-//W3C//DTD SVG 1.1//EN" "http://www.w3.org/Graphics/SVG/1.1/DTD/svg11.dtd">
<!-- Creator: CorelDRAW -->
<svg xmlns="http://www.w3.org/2000/svg" xml:space="preserve" width="512px" height="512px" version="1.1" style="shape-rendering:geometricPrecision; text-rendering:geometricPrecision; image-rendering:optimizeQuality; fill-rule:evenodd; clip-rule:evenodd"
viewBox="0 0 512 512"
 xmlns:xlink="http://www.w3.org/1999/xlink"
 xmlns:xodm="http://www.corel.com/coreldraw/odm/2003"
 enable-background="new 0 0 256 256">
 <defs>
  <style type="text/css">
   <![CDATA[
    .fil0 {fill:#FEFEFE;fill-rule:nonzero}
   ]]>
  </style>
 </defs>
 <g id="Layer_x0020_1">
  <metadata id="CorelCorpID_0Corel-Layer"/>
  <g id="_3033753583792">
   <g>
    <g>
     <g>
      <path class="fil0" d="M80.58 19.29c-4.89,2.23 -9.37,7.53 -10.59,12.82 -1.63,5.7 -1.63,445.53 0,451.23 1.22,5.29 5.91,10.79 10.59,12.82 3.66,1.63 10.59,1.84 175.11,1.84 164.53,0 171.45,0 175.12,-1.84 4.68,-2.23 9.36,-7.53 10.59,-12.82 1.42,-5.7 1.42,-445.53 0,-451.23 -1.23,-5.29 -5.91,-10.79 -10.59,-12.83 -3.67,-1.62 -10.59,-1.83 -175.12,-1.83 -164.52,0 -171.45,0 -175.11,1.84zm110.77 106.08l-37.47 37.47 -26.47 -26.47 -26.47 -26.47 10.59 -10.59 10.59 -10.59 15.68 15.68 15.67 15.68 26.88 -26.88 27.09 -26.88 10.79 10.79 10.79 10.8 -37.67 37.46zm221.13 -20.16l0 11.81 -77.37 0 -77.38 0 0 -11.81 0 -11.81 77.38 0 77.37 0 0 11.81zm-221.13 143.15l-37.47 37.47 -26.47 -26.48 -26.47 -26.47 10.59 -10.58 10.59 -10.59 15.68 15.68 15.67 15.68 26.88 -26.88 26.88 -26.88 10.79 10.79 10.8 10.79 -37.47 37.47zm221.13 -7.13l0 11.81 -77.37 0 -77.38 0 0 -11.81 0 -11.81 77.38 0 77.37 0 0 11.81zm-185.9 147.02l0 58.23 -58.24 0 -58.03 0 0 -58.23 0 -58.24 58.23 0 58.24 0 0 58.24 -0.2 0zm185.9 -10.8l0 11.81 -77.37 0 -77.38 0 0 -11.81 0 -11.81 77.38 0 77.37 0 0 11.81z"/>
      <polygon class="fil0" points="136.57,387.64 136.57,420.01 168.95,420.01 201.33,420.01 201.33,387.64 201.33,355.26 168.95,355.26 136.57,355.26 "/>
     </g>
    </g>
   </g>
  </g>
 </g>
</svg>
