<?xml version="1.0" encoding="utf-8"?>
<!-- Svg Vector Icons : http://www.onlinewebfonts.com/icon -->
<!DOCTYPE svg PUBLIC "-//W3C//DTD SVG 1.1//EN" "http://www.w3.org/Graphics/SVG/1.1/DTD/svg11.dtd">
<svg version="1.1" xmlns="http://www.w3.org/2000/svg" xmlns:xlink="http://www.w3.org/1999/xlink" x="0px" y="0px" viewBox="0 0 256 256" enable-background="new 0 0 256 256" xml:space="preserve">
<metadata> Svg Vector Icons : http://www.onlinewebfonts.com/icon </metadata>
<g><g><path fill="#000000" d="M73.6,64.4c0,30.1,24.3,54.4,54.4,54.4c30.1,0,54.4-24.3,54.4-54.4C182.4,34.3,158,10,128,10C97.9,10,73.6,34.3,73.6,64.4L73.6,64.4z"/><path fill="#000000" d="M67.9,136.4L36,163.8c-1.6,1.2-2.5,3.3-2.5,5.3V239c0,3.7,3.3,7,7,7H128h87.5c3.7,0,7-3.3,7-7v-69.9c0-2-0.8-4.1-2.5-5.3l-31.9-27.4c-2.5-2-5.7-2.5-8.6-0.4c-4.1,2.9-8.6,5.7-13.5,7.8l-11.5,74.8c-0.8,5.3-5.3,9.4-11.1,9.4h-15.9h-0.8h-15.9c-5.3,0-10.2-4.1-11.1-9.4l-11.5-75.3c-4.5-2-8.6-4.5-12.7-7.4C74,133.9,70.3,134.3,67.9,136.4z"/><path fill="#000000" d="M124.3,218.6c2,1.6,4.9,1.6,7,0c0,0,10.6-7.8,10.6-9.8l-5.7-36.4c-0.4-2-2-3.3-4.1-3.3h-8.6c-2,0-3.7,1.6-4.1,3.3l-5.7,36.4C114.1,210.8,124.3,218.6,124.3,218.6z"/><path fill="#000000" d="M125.5,159.7c1.2,1.2,3.3,1.2,4.5,0l9-11.5l0,0c1.2-1.6,0-4.5-2-4.5h-18.4c-2.5,0-3.7,2.5-2.5,4.5c0,0,0,0,0,0.4L125.5,159.7z"/></g></g>
</svg>