<?xml version="1.0" encoding="utf-8"?>
<!-- Svg Vector Icons : http://www.onlinewebfonts.com/icon -->
<!DOCTYPE svg PUBLIC "-//W3C//DTD SVG 1.1//EN" "http://www.w3.org/Graphics/SVG/1.1/DTD/svg11.dtd">
<svg version="1.1" xmlns="http://www.w3.org/2000/svg" xmlns:xlink="http://www.w3.org/1999/xlink" x="0px" y="0px" viewBox="0 0 256 256" enable-background="new 0 0 256 256" xml:space="preserve">
<metadata> Svg Vector Icons : http://www.onlinewebfonts.com/icon </metadata>
<g><g><path fill="#000000" d="M223.8,246H32.1c-6.1,0-11.1-5-11.1-11.1V43.2c0-6.1,5-11.1,11.1-11.1h18.4v11.1c0,12.2,9.9,22.1,22.1,22.1s22.1-9.9,22.1-22.1V32.1h11.1v11.1c0,12.2,9.9,22.1,22.1,22.1c12.2,0,22.1-9.9,22.1-22.1V32.1h11.1v11.1c0,12.2,9.9,22.1,22.1,22.1c12.2,0,22.1-9.9,22.1-22.1V32.1h18.4c6.1,0,11.1,4.9,11.1,11.1v191.7C234.9,241,230,246,223.8,246 M194.3,94.8H61.6c-6.1,0-11.1,4.9-11.1,11.1c0,6.1,5,11.1,11.1,11.1h132.8c6.1,0,11.1-5,11.1-11.1C205.4,99.8,200.5,94.8,194.3,94.8 M194.3,142.8H61.6c-6.1,0-11.1,4.9-11.1,11.1c0,6.1,5,11.1,11.1,11.1h132.8c6.1,0,11.1-5,11.1-11.1C205.4,147.7,200.5,142.8,194.3,142.8 M196.2,190.7H59.8c-5.1,0-9.2,4.1-9.2,9.2s4.1,9.2,9.2,9.2h136.4c5.1,0,9.2-4.1,9.2-9.2S201.3,190.7,196.2,190.7 M183.3,54.3c-6.1,0-11.1-5-11.1-11.1V21.1c0-6.1,5-11.1,11.1-11.1c6.1,0,11.1,4.9,11.1,11.1v22.1C194.3,49.3,189.4,54.3,183.3,54.3 M128,54.3c-6.1,0-11.1-5-11.1-11.1V21.1c0-6.1,5-11.1,11.1-11.1c6.1,0,11.1,4.9,11.1,11.1v22.1C139,49.3,134.1,54.3,128,54.3 M72.7,54.3c-6.1,0-11.1-5-11.1-11.1V21.1c0-6.1,5-11.1,11.1-11.1c6.1,0,11.1,4.9,11.1,11.1v22.1C83.7,49.3,78.8,54.3,72.7,54.3"/></g></g>
</svg>