<?xml version="1.0" encoding="utf-8"?>
<!-- Svg Vector Icons : http://www.onlinewebfonts.com/icon -->
<!DOCTYPE svg PUBLIC "-//W3C//DTD SVG 1.1//EN" "http://www.w3.org/Graphics/SVG/1.1/DTD/svg11.dtd">
<svg version="1.1" xmlns="http://www.w3.org/2000/svg" xmlns:xlink="http://www.w3.org/1999/xlink" x="0px" y="0px" viewBox="0 0 256 256" enable-background="new 0 0 256 256" xml:space="preserve">
<metadata> Svg Vector Icons : http://www.onlinewebfonts.com/icon </metadata>
<g><g><path fill="#000000" d="M79.2,197h-26c-3.2,0-5.8-2.6-5.8-5.8v-2.9c0-3.2,2.6-5.8,5.8-5.8h23.4c-0.3-2.8-0.4-5.7-0.4-8.6c0-1.9,0.1-3.9,0.2-5.8H53.2c-3.2,0-5.8-2.6-5.8-5.8v-2.9c0-3.2,2.6-5.8,5.8-5.8h25.3c1.1-5,2.7-9.8,4.6-14.4h-30c-3.2,0-5.8-2.6-5.8-5.8v-2.9c0-3.2,2.6-5.8,5.8-5.8h37.6c3.4-5.2,7.4-10.1,11.8-14.4c-0.2,0-0.3,0.1-0.5,0.1H53.1c-3.2,0-5.8-2.6-5.8-5.8V102c0-3.2,2.6-5.8,5.8-5.8H102c3.2,0,5.8,2.6,5.8,5.8v2.9c0,0.3-0.1,0.7-0.1,1c15.5-13.2,35.7-21.2,57.6-21.2c12.3,0,23.9,2.5,34.5,6.9V50.7c0-6.6-5.6-11.9-12.5-11.9h-7.7v23H30.1v-23h-7.6c-6.9,0-12.5,5.3-12.5,11.9v171.7c0,6.6,5.6,11.9,12.5,11.9h77.3C90.1,223.9,83,211.1,79.2,197z"/><path fill="#000000" d="M159.6,24.4h-30.3c-0.8-12.8-11.3-23-24.4-23c-13,0-23.6,10.2-24.4,23H50.3c-8,0-14.4,6.4-14.4,14.4c0,0,0,13.2,0,17.3h138.1c0-4.3,0-17.3,0-17.3C173.9,30.8,167.5,24.4,159.6,24.4z M104.9,35.9c-5.6,0-10.1-4.5-10.1-10.1s4.5-10.1,10.1-10.1c5.6,0,10.1,4.5,10.1,10.1C115,31.4,110.5,35.9,104.9,35.9z"/><path fill="#000000" d="M222.4,116.9c-31.5-31.5-82.6-31.5-114.1,0c-31.5,31.5-31.5,82.6,0,114.1c31.5,31.5,82.6,31.5,114.1,0C253.9,199.5,253.9,148.4,222.4,116.9z M125.1,214.2c-0.1-0.1,2.9-31.6,2.9-31.6l28.8,28.8C156.7,211.3,125,214.2,125.1,214.2z M205,163.9l-39.7,38.8c0,0-31.7-28.7-31.6-28.8l41.6-39.7c3.3-3.3,9.4-3.3,12.7,0l17,17C208.4,154.5,208.4,160.6,205,163.9z"/></g></g>
</svg>